<svg width="155" height="89" viewBox="0 0 155 89" fill="none" xmlns="http://www.w3.org/2000/svg"><path fill-rule="evenodd" clip-rule="evenodd" d="M7.4 25.7H131v55.4c0 4.1-3.3 7.4-7.4 7.4H7.4c-4.1 0-7.4-3.3-7.4-7.4v-48c0-4.1 3.3-7.4 7.4-7.4z" fill="#F77D64"/><path fill-rule="evenodd" clip-rule="evenodd" d="M146.4 18.5c2.4-3.3 3.7-9 1.7-18.5-24.4 3.8-19.2 17-16.8 21.1 2.9-4.8 8.8-11.8 12.6-15.3-2.5 3.7-6.3 9.8-8.4 14.9 3.3-3.7 7.2-3.9 10.9-2.2zm7.7 7.7c-10.7 12.1-16.4 5.4-18.6 1.8 3.3-1.1 6.8-1.6 10.3-1.4-3.5-1.1-7.2-1.6-10.9-1.4 1.3-3.1 6.6-12.3 19.2 1z" fill="#78C152"/><path fill-rule="evenodd" clip-rule="evenodd" d="M74.7 39h3.2v3.2h-3.2V39zM28.6 59.1l8-20.1h5.3L29.6 67.9c-1.8 4.2-4.2 6.1-8.5 6.3-2 .1-4.3-.3-6.6-1.2v-4c4.1 1.2 4.7 1.4 6.2 1.3 2 0 3.7-1.1 5.7-5.6L14.5 39h5.1l9 20.1zm34.9 15.1h-4.4v-9.4c-1.9.5-3.9.8-6 .8-6.2 0-9.9-3.2-10-9.5v-7.7h4.4v7.8c0 3.8 1.9 5.5 5.5 5.5 2 0 4-.3 6-.8V48.3h4.4v25.9h.1zm17.6 0c-8.3 0-12.3-5.4-12.3-13 0-6.6 4.3-12.8 11.7-12.8 9.3 0 11 6.8 11 14.1H72.9c.1 4.5 3.4 8 8.3 8 3 0 5.3-1 7.2-3.2l2.8 2c-2.3 3.3-5.6 4.9-10.1 4.9zm-.6-22.3c-4.3 0-7 3.4-7.5 7.1h14.4c0-3.8-2.6-7.1-6.9-7.1zm36 .1h-8.7v22.2h-4.4V52h-8.5v-3.6h21.5V52h.1zm-34-13h3.2v3.2h-3.2V39z" fill="#fff"/></svg>