<svg width="163" height="94" viewBox="0 0 163 94" fill="none" xmlns="http://www.w3.org/2000/svg"><path fill-rule="evenodd" clip-rule="evenodd" d="M7.79 27h130.39v58.46a7.79 7.79 0 0 1-7.79 7.79H7.79A7.79 7.79 0 0 1 0 85.46V34.79A7.79 7.79 0 0 1 7.79 27z" fill="#E31724"/><path fill-rule="evenodd" clip-rule="evenodd" d="M154.38 19.94c2.62-3.48 3.88-9.48 1.84-19.48-25.74 4-20.22 17.91-17.76 22.26A88.995 88.995 0 0 1 151.78 6.6a98.19 98.19 0 0 0-8.86 15.71c3.47-4 7.54-4.21 11.46-2.37zm8.1 8.16c-11.28 12.72-17.33 5.68-19.58 1.86a29.997 29.997 0 0 1 10.88-1.5 33.466 33.466 0 0 0-11.51-1.45c1.37-3.29 7.01-13 20.21 1.09z" fill="#85BC22"/><path fill-rule="evenodd" clip-rule="evenodd" d="M78.76 41.54h3.39v3.39h-3.39v-3.39zM30.21 62.78l8.42-21.24h5.6L31.29 72.03c-1.9 4.47-4.39 6.45-9 6.63a18.768 18.768 0 0 1-7-1.24v-4.27c4.37 1.28 4.94 1.43 6.5 1.4 2.13 0 3.93-1.14 6-5.92L15.32 41.54h5.41l9.48 21.24zm36.71 15.88h-4.67v-9.87c-2.053.54-4.167.813-6.29.81-6.55 0-10.44-3.38-10.5-10.06v-8.08h4.65v8.27c0 4.06 2 5.83 5.85 5.83 2.123.003 4.237-.27 6.29-.81V51.46h4.67v27.2zm18.6 0c-8.72 0-12.94-5.72-12.94-13.69 0-7 4.51-13.49 12.34-13.49 9.76 0 11.61 7.13 11.61 14.88H76.88a8.46 8.46 0 0 0 8.79 8.49 9.24 9.24 0 0 0 7.55-3.39l3 2.13c-2.4 3.38-5.967 5.07-10.7 5.07zm-.6-23.51c-4.55 0-7.36 3.57-7.88 7.54h15.19c0-4.07-2.75-7.54-7.31-7.54zm37.93.09h-9.12v23.42h-4.65V55.24h-9v-3.78h22.72v3.76l.05.02zM87 41.57h3.39v3.39H87v-3.39z" fill="#fff"/></svg>