<svg width="56" height="56" viewBox="0 0 56 56" fill="none" xmlns="http://www.w3.org/2000/svg"><path d="M50.025 10.712h1.73a1.093 1.093 0 0 0 0-2.186h-4.153c-.604 0-1.093.49-1.093 1.093v4.153a1.093 1.093 0 0 0 2.186 0V12.57A25.73 25.73 0 0 1 53.814 28c0 14.234-11.58 25.814-25.814 25.814S2.186 42.234 2.186 28 13.766 2.186 28 2.186c1.053 0 2.112.064 3.15.19a1.094 1.094 0 0 0 .263-2.17A28.397 28.397 0 0 0 28 0C20.52 0 13.49 2.912 8.201 8.201 2.912 13.489 0 20.521 0 28c0 7.48 2.912 14.51 8.201 19.799C13.489 53.087 20.521 56 28 56c7.48 0 14.51-2.913 19.799-8.201C53.087 42.511 56 35.479 56 28c0-6.311-2.108-12.37-5.975-17.288z" fill="#fff"/><path d="M11.856 16.506a1.093 1.093 0 0 0-1.508.34 20.956 20.956 0 0 0-3.11 13.345 20.925 20.925 0 0 0 6 12.571c4.07 4.07 9.416 6.105 14.762 6.105s10.692-2.035 14.762-6.105c8.14-8.14 8.14-21.384 0-29.524a20.927 20.927 0 0 0-12.55-5.998 20.958 20.958 0 0 0-13.331 3.086 1.093 1.093 0 0 0 1.166 1.849c7.425-4.68 16.953-3.608 23.17 2.609 7.287 7.287 7.287 19.145 0 26.433-7.288 7.287-19.146 7.287-26.433 0-6.13-6.131-7.22-15.889-2.589-23.202a1.093 1.093 0 0 0-.339-1.509z" fill="#fff"/><path d="M42.21 29.11h1.347a1.093 1.093 0 0 0 0-2.185H42.21a1.093 1.093 0 0 0 0 2.186zM11.35 27.982c0 .604.489 1.093 1.093 1.093h1.347a1.093 1.093 0 0 0 0-2.186h-1.347c-.604 0-1.093.49-1.093 1.093zM29.11 13.79v-1.347a1.093 1.093 0 0 0-2.185 0v1.348a1.093 1.093 0 0 0 2.186 0zM26.89 42.21v1.347a1.093 1.093 0 0 0 2.185 0V42.21a1.093 1.093 0 0 0-2.186 0zM22.521 20.975a1.093 1.093 0 0 0-1.546 1.546l3.705 3.705A3.741 3.741 0 0 0 24.235 28 3.77 3.77 0 0 0 28 31.765 3.77 3.77 0 0 0 31.765 28c0-.641-.161-1.245-.445-1.774l7.475-7.475a1.093 1.093 0 0 0-1.546-1.546l-7.475 7.475A3.741 3.741 0 0 0 28 24.235c-.641 0-1.245.161-1.774.445l-3.705-3.705zM29.58 28c0 .87-.708 1.58-1.579 1.58-.87 0-1.58-.71-1.58-1.58 0-.87.71-1.58 1.58-1.58.87 0 1.58.71 1.58 1.58zM14.783 14.783c.204-.203.321-.485.321-.773a1.1 1.1 0 0 0-.321-.772 1.1 1.1 0 0 0-.773-.32c-.287 0-.57.116-.772.32-.204.203-.32.485-.32.772 0 .289.116.57.32.773.203.203.485.32.772.32a1.1 1.1 0 0 0 .773-.32zM35.571 3.266a1.097 1.097 0 0 0 1.095-1.093c0-.288-.117-.57-.32-.773a1.102 1.102 0 0 0-.775-.32 1.1 1.1 0 0 0-.772.32c-.203.203-.32.485-.32.773a1.097 1.097 0 0 0 1.093 1.093z" fill="#fff"/></svg>