<svg width="32" height="32" viewBox="0 0 32 32" fill="none" xmlns="http://www.w3.org/2000/svg"><g clip-path="url(#a)"><path d="M27.969.475H4.124a3.654 3.654 0 0 0-3.65 3.65v23.844a3.654 3.654 0 0 0 3.65 3.65H27.97a3.654 3.654 0 0 0 3.65-3.65V4.124a3.654 3.654 0 0 0-3.65-3.65zm1.216 27.494c0 .67-.545 1.217-1.216 1.217h-6.934V19.27h3.758l.621-3.77h-4.38v-2.616c0-1.033.793-1.825 1.825-1.825h2.494V7.287H22.86a5.595 5.595 0 0 0-5.595 5.607V15.5h-3.65v3.771h3.65v9.916H4.125c-.67 0-1.216-.546-1.216-1.217V4.124c0-.67.545-1.216 1.216-1.216H27.97c.67 0 1.216.546 1.216 1.216V27.97z" fill="#002A50"/></g><defs><clipPath id="a"><path fill="#fff" transform="translate(.475 .475)" d="M0 0h31.144v31.144H0z"/></clipPath></defs></svg>