<svg width="95" height="95" viewBox="0 0 95 95" fill="none" xmlns="http://www.w3.org/2000/svg"><path d="M83.906 45.09l-.256-.47 7.894-7.894a6.688 6.688 0 0 0 1.972-4.758 6.741 6.741 0 0 0-6.734-6.734c-.754 0-1.48.15-2.173.386V5.937a4.459 4.459 0 0 0-4.453-4.453h-46.27a4.426 4.426 0 0 0-3.149 1.305L17.633 15.893a4.421 4.421 0 0 0-1.305 3.15v3.298c-8.31.753-14.844 7.75-14.844 16.253v47.5c0 4.092 3.33 7.422 7.422 7.422H26.72c4.092 0 7.422-3.33 7.422-7.422v-1.485H92.3l-3.242-19.45a42.365 42.365 0 0 0-5.152-20.07zm2.152 19.099l-14.471 3.947-3.49-2.792a7.392 7.392 0 0 1-2.784-5.797V46.016a2.972 2.972 0 0 1 2.968 2.968v10.391h2.969v-2.354l10.204-10.204a39.357 39.357 0 0 1 4.604 17.372zM65.312 43.047a2.972 2.972 0 0 0-2.968 2.969V47.5c0 .818-.667 1.484-1.485 1.484a1.487 1.487 0 0 1-1.484-1.484v-1.484a5.944 5.944 0 0 1 5.938-5.938h3.838l-3.049 3.049c-.261-.036-.52-.08-.79-.08zM49.058 68.388l1.953-4.886 4.238 4.237-4.888 1.955c-.627.256-1.376-.25-1.376-.933 0-.13.024-.254.073-.373zm8.834-2.206l-5.323-5.323 8.976-8.976a4.34 4.34 0 0 0 .8-.205v7.868c0 .674.077 1.333.202 1.98l-4.655 4.656zm-1.212-17.198h-16.6v-5.937h16.847c-.33.93-.52 1.927-.52 2.969V47.5c0 .523.107 1.018.273 1.484zm-16.6 2.97h17.197L51.34 57.89h-11.26v-5.938zm0 8.905h8.791l-2.375 5.938h-6.417v-5.938zm0 8.907h6.082c.448 1.702 1.988 2.968 3.83 2.968.509 0 1.006-.095 1.475-.283l3.456-1.384v4.636H40.078v-5.937zm17.812.114l.834-.334 4.943-4.943c.053.097.102.194.16.29v10.81h-5.937V69.88zm8.906-1.777l2.969 2.375v5.225h-2.97v-7.6zm23.75-36.135a3.74 3.74 0 0 1-1.103 2.661L71.25 52.823v-3.839c0-1.858-.876-3.5-2.218-4.59l15.089-15.088a3.74 3.74 0 0 1 2.662-1.103 3.77 3.77 0 0 1 3.764 3.765zM31.172 6.552v8.292c0 .818-.667 1.484-1.485 1.484h-8.291l9.776-9.776zm-13.36 18.682c7.366 0 13.36 5.994 13.36 13.36 0 7.365-5.994 13.36-13.36 13.36-7.365 0-13.359-5.995-13.359-13.36 0-7.366 5.994-13.36 13.36-13.36zM10.392 53.12a16.221 16.221 0 0 0 7.421 1.802c2.674 0 5.193-.66 7.422-1.802v7.74H10.391v-7.74zm16.328 37.427H8.906a4.459 4.459 0 0 1-4.453-4.453V47.953a16.48 16.48 0 0 0 2.969 3.227v9.68a2.972 2.972 0 0 0 2.969 2.968h14.843a2.972 2.972 0 0 0 2.97-2.969v-9.68a16.48 16.48 0 0 0 2.968-3.226v38.14a4.459 4.459 0 0 1-4.453 4.454zm7.422-8.906V38.594c0-8.503-6.535-15.5-14.844-16.253v-3.044h10.39a4.459 4.459 0 0 0 4.454-4.453V4.454h46.015c.818 0 1.485.666 1.485 1.484v21.65L72.12 37.11h-6.808c-2.628 0-4.987 1.152-6.62 2.97H37.11v38.593h32.657v2.969H34.14zm38.593 0V70.9l13.65-3.723 2.41 14.464h-16.06z" fill="#002A50"/><path d="M16.328 45.8v3.184h2.969V45.8c1.714-.543 2.969-2.13 2.969-4.02a4.214 4.214 0 0 0-2.343-3.79l-2.894-1.446a1.269 1.269 0 0 1 .567-2.403h.433c.7 0 1.268.568 1.268 1.267v1.701h2.969v-1.7c0-1.892-1.255-3.479-2.97-4.022v-3.184h-2.968v3.184c-1.714.543-2.969 2.13-2.969 4.021 0 1.614.897 3.067 2.343 3.79l2.894 1.446a1.269 1.269 0 0 1-.567 2.403h-.433c-.7 0-1.268-.569-1.268-1.268v-1.7H13.36v1.7c0 1.891 1.255 3.478 2.97 4.021zM25.234 66.797H10.391a2.972 2.972 0 0 0-2.97 2.969v14.843a2.972 2.972 0 0 0 2.97 2.97h14.843a2.972 2.972 0 0 0 2.97-2.97V69.766a2.972 2.972 0 0 0-2.97-2.97zm0 5.937h-2.968v-2.968h2.968v2.968zM19.297 84.61h-2.969v-2.968h2.969v2.968zm0-5.937h-2.969v-2.969h2.969v2.969zm-5.938 0h-2.968v-2.969h2.968v2.969zm2.97-5.938v-2.968h2.968v2.968h-2.969zm-2.97-2.968v2.968h-2.968v-2.968h2.968zM10.391 81.64h2.968v2.968h-2.968v-2.968zm11.875 2.968v-8.906h2.97l.001 8.906h-2.971zM78.672 7.422H37.109v8.906h41.563V7.422zm-2.969 5.937H40.078v-2.968h35.625v2.968zM37.11 19.297h41.562v2.969H37.109v-2.97zM37.11 25.234h41.562v2.97H37.109v-2.97zM37.11 31.172h23.75v2.969H37.11v-2.97z" fill="#002A50"/></svg>