<svg width="95" height="95" viewBox="0 0 95 95" fill="none" xmlns="http://www.w3.org/2000/svg"><path d="M46.439 74.65l17.81-17.81 2.099 2.1-17.81 17.81-2.1-2.1zM50.469 65.313a4.459 4.459 0 0 0 4.453-4.454 4.459 4.459 0 0 0-4.453-4.453 4.459 4.459 0 0 0-4.453 4.453 4.459 4.459 0 0 0 4.453 4.453zm0-5.938a1.485 1.485 0 1 1-.001 2.97 1.485 1.485 0 0 1 0-2.97zM62.344 68.281a4.459 4.459 0 0 0-4.453 4.453 4.459 4.459 0 0 0 4.453 4.454 4.459 4.459 0 0 0 4.453-4.454 4.459 4.459 0 0 0-4.453-4.453zm0 5.938a1.485 1.485 0 1 1 0-2.97 1.485 1.485 0 0 1 0 2.97zM16.328 31.172h53.438v2.969H16.328v-2.97zM16.328 37.11h19.297v2.968H16.328V37.11zM38.594 37.11h2.968v2.968h-2.968V37.11zM16.328 43.047h25.235v2.969H16.328v-2.97zM16.328 48.984h2.969v2.97h-2.969v-2.97zM22.266 48.984h19.297v2.97H22.265v-2.97zM16.328 54.922h14.844v2.969H16.328v-2.97z" fill="#002A50"/><path d="M75.703 11.875V1.485H10.391v64.953c0 1.563.633 3.093 1.74 4.197l8.65 8.651v14.23H84.61V11.875h-8.906zM13.36 4.453h59.375v77.188H29.688V66.797H13.395c-.015-.12-.036-.24-.036-.36V4.454zM26.72 80.98c-.086-.068-.177-.13-.256-.21L15.458 69.767h11.26V80.98zm54.922 9.567H23.75v-8.292l.614.615a5.974 5.974 0 0 0 4.198 1.74h47.141V14.843h5.938v75.703z" fill="#002A50"/></svg>