<svg width="95" height="95" viewBox="0 0 95 95" fill="none" xmlns="http://www.w3.org/2000/svg"><g clip-path="url(#a)" fill="#002A50"><path d="M1.59 88.668h4.75v4.75c0 .874.708 1.582 1.582 1.582h66.496c.874 0 1.583-.708 1.583-1.583v-6.333h-3.167v4.75H9.506v-3.166H45.92V85.5H3.173V17.423h12.665c.875 0 1.584-.71 1.584-1.584V3.174h49.08v30.08h3.166V9.507h3.166v26.915h3.167V7.923c0-.874-.709-1.583-1.583-1.583h-4.75V1.59c0-.874-.709-1.583-1.583-1.583H15.838c-.031 0-.06.016-.092.02a1.488 1.488 0 0 0-.422.083c-.047.014-.092.03-.138.05a1.558 1.558 0 0 0-.467.316L.47 14.725c-.132.134-.24.292-.316.464-.023.049-.035.098-.053.149a1.494 1.494 0 0 0-.08.406c0 .035-.021.065-.021.1v71.24a1.582 1.582 0 0 0 1.59 1.584zM14.254 5.412v8.844H5.411l8.844-8.844z"/><path d="M49.086 34.837v-1.583h12.666v-7.916a4.75 4.75 0 0 0-4.33-4.724 3.164 3.164 0 0 0-.42-.026h-44.33a4.75 4.75 0 0 0-4.75 4.75v50.663a4.75 4.75 0 0 0 4.75 4.75H36.42v-3.167H20.588v-4.75h12.666v-3.166H20.588v-4.75h11.083v-3.166H20.588v-4.75h11.4v-3.166h-11.4v-4.75h14.25V45.92h-14.25v-4.75H41.17v-3.166H20.588v-4.75H45.92v1.583h3.166zm8.046-11.07a1.573 1.573 0 0 1 1.453 1.571v4.75h-9.499v-6.344h7.85c.065.012.13.018.196.022zm-44.46-.012h4.75v6.333h-6.333v-4.75c0-.874.709-1.583 1.583-1.583zm4.75 53.83h-4.75A1.583 1.583 0 0 1 11.089 76v-3.166h6.333v4.75zm0-7.917h-6.333v-4.75h6.333v4.75zm0-7.916h-6.333v-4.75h6.333v4.75zm0-7.916h-6.333v-4.75h6.333v4.75zm0-7.916h-6.333v-4.75h6.333v4.75zm0-7.916h-6.333v-4.75h6.333v4.75zm3.166-7.916v-6.333l25.332-.008v6.34H20.588zM23.755 14.255H36.42v3.167H23.755v-3.167zM39.587 14.255h6.333v3.167h-6.333v-3.167zM23.755 7.922H45.92v3.167H23.755V7.922z"/><path d="M81.87 74.882l-.203.202c6.928-11.134 4.255-25.71-6.173-33.662-10.428-7.952-25.192-6.673-34.097 2.954-8.905 9.627-9.031 24.446-.292 34.223 8.74 9.777 23.48 11.309 34.04 3.535l11.419 11.419a4.94 4.94 0 0 0 6.988 0 4.94 4.94 0 0 0 0-6.988L81.87 74.882zm-43.867-13.13c0-12.241 9.924-22.165 22.166-22.165 12.241 0 22.165 9.924 22.165 22.165S72.41 83.917 60.169 83.917c-12.236-.013-22.152-9.929-22.165-22.165zm52.055 30.081a1.768 1.768 0 0 1-1.255-.518L77.584 80.097a25.34 25.34 0 0 0 2.405-2.617l11.323 11.323a1.775 1.775 0 0 1-1.254 3.03z"/><path d="M60.169 42.753c-10.493 0-18.999 8.506-18.999 19 0 10.492 8.506 18.998 18.999 18.998 10.492 0 18.998-8.506 18.998-18.999-.01-10.488-8.51-18.987-18.998-18.999zm-6.333 19a6.333 6.333 0 1 1 12.666 0 6.333 6.333 0 0 1-12.666 0zm-1.842 4.814a19.22 19.22 0 0 1-7.156-4.815 19.23 19.23 0 0 1 7.156-4.815 9.411 9.411 0 0 0 0 9.63zm16.349-9.63a19.224 19.224 0 0 1 7.156 4.815 19.215 19.215 0 0 1-7.156 4.815 9.411 9.411 0 0 0 0-9.63zM60.169 45.92a15.85 15.85 0 0 1 15.199 11.422 24.153 24.153 0 0 0-14.214-5.038 9.438 9.438 0 0 0-1.96 0 24.154 24.154 0 0 0-14.224 5.038A15.85 15.85 0 0 1 60.169 45.92zm0 31.664a15.85 15.85 0 0 1-15.2-11.42A24.16 24.16 0 0 0 59.185 71.2a9.558 9.558 0 0 0 1.96 0 24.16 24.16 0 0 0 14.224-5.038 15.85 15.85 0 0 1-15.2 11.421z"/><path d="M63.335 61.752a3.167 3.167 0 1 1-6.333 0 3.167 3.167 0 0 1 6.333 0z"/></g><defs><clipPath id="a"><path fill="#fff" d="M0 0h95v95H0z"/></clipPath></defs></svg>