<svg width="32" height="32" viewBox="0 0 32 32" fill="none" xmlns="http://www.w3.org/2000/svg"><g clip-path="url(#a)" fill="#002A50"><path d="M31.86 9.631c-.073-1.655-.34-2.792-.724-3.778a7.6 7.6 0 0 0-1.801-2.762 7.665 7.665 0 0 0-2.756-1.795C25.587.913 24.456.645 22.8.572c-1.667-.08-2.197-.097-6.425-.097s-4.758.018-6.419.09C8.303.64 7.165.908 6.18 1.29a7.599 7.599 0 0 0-2.762 1.8 7.668 7.668 0 0 0-1.795 2.757C1.24 6.839.972 7.97.898 9.625.82 11.292.801 11.82.801 16.05c0 4.228.018 4.757.091 6.418.073 1.655.341 2.793.724 3.779a7.68 7.68 0 0 0 1.801 2.762 7.664 7.664 0 0 0 2.756 1.794c.992.384 2.123.651 3.778.724 1.661.073 2.19.092 6.42.092 4.228 0 4.757-.018 6.418-.092 1.655-.073 2.792-.34 3.778-.724a7.966 7.966 0 0 0 4.557-4.556c.383-.992.65-2.124.724-3.779.073-1.66.091-2.19.091-6.418 0-4.229-.006-4.758-.08-6.419zm-2.805 12.716c-.067 1.52-.322 2.342-.535 2.89a5.166 5.166 0 0 1-2.957 2.957c-.548.212-1.375.468-2.89.535-1.643.073-2.135.09-6.29.09-4.156 0-4.655-.017-6.292-.09-1.52-.067-2.342-.323-2.89-.535a4.793 4.793 0 0 1-1.788-1.163 4.842 4.842 0 0 1-1.162-1.788c-.213-.548-.469-1.375-.536-2.89-.073-1.643-.09-2.136-.09-6.291 0-4.156.017-4.655.09-6.291.067-1.521.323-2.342.536-2.89.25-.675.645-1.29 1.168-1.789A4.835 4.835 0 0 1 7.207 3.93c.548-.213 1.376-.468 2.89-.535 1.643-.073 2.136-.091 6.291-.091 4.162 0 4.654.018 6.291.09 1.521.068 2.343.323 2.89.536.675.25 1.29.645 1.789 1.162a4.84 4.84 0 0 1 1.162 1.79c.213.547.468 1.374.535 2.889.073 1.643.091 2.135.091 6.29 0 4.156-.018 4.643-.09 6.286z"/><path d="M16.376 8.05c-4.417 0-8 3.583-8 8s3.583 8 8 8 8-3.583 8-8-3.583-8-8-8zm0 13.19a5.19 5.19 0 1 1 .001-10.382 5.19 5.19 0 0 1-.001 10.381zM26.56 7.733a1.868 1.868 0 1 1-3.735 0 1.868 1.868 0 0 1 3.735 0z"/></g><defs><clipPath id="a"><path fill="#fff" transform="translate(.746 .475)" d="M0 0h31.144v31.144H0z"/></clipPath></defs></svg>