<svg width="56" height="56" viewBox="0 0 56 56" fill="none" xmlns="http://www.w3.org/2000/svg"><path d="M55.168 40.807h-2.932V11.066a3.358 3.358 0 0 0-3.358-3.358H6.86a3.358 3.358 0 0 0-3.357 3.358v29.741H.832A.832.832 0 0 0 0 41.64v1.837a4.817 4.817 0 0 0 4.817 4.816H36.15a.832.832 0 0 0 0-1.663H4.817a3.153 3.153 0 0 1-3.154-3.153V42.47H21.265a2.969 2.969 0 0 0 2.964 2.91h7.542c1.617 0 2.934-1.3 2.964-2.91h19.602v1.005a3.153 3.153 0 0 1-3.153 3.153H40.032a.832.832 0 0 0 0 1.663h11.152A4.817 4.817 0 0 0 56 43.476v-1.837a.832.832 0 0 0-.832-.832zm-23.398 2.91h-7.54c-.7 0-1.273-.554-1.302-1.246h10.144a1.304 1.304 0 0 1-1.302 1.247zm18.802-2.91H5.166V11.066c0-.935.76-1.695 1.694-1.695h42.02c.934 0 1.694.76 1.694 1.695v29.741z" fill="#fff"/><path d="M48.3 10.813H16.08a.832.832 0 0 0 0 1.663h31.388v25.226H8.27V12.476h3.928a.832.832 0 0 0 0-1.663h-4.76a.832.832 0 0 0-.831.832v26.889c0 .46.372.831.831.831H48.3c.46 0 .832-.372.832-.831v-26.89a.832.832 0 0 0-.832-.831z" fill="#fff"/></svg>