<svg width="54" height="54" viewBox="0 0 54 54" fill="none" xmlns="http://www.w3.org/2000/svg"><path d="M27 15.677a.873.873 0 0 1-.871-.87h-1.742a2.61 2.61 0 0 0 1.742 2.452v1.902h1.742V17.26a2.61 2.61 0 0 0 1.742-2.453A2.616 2.616 0 0 0 27 12.194a.873.873 0 0 1-.871-.871c0-.48.391-.871.871-.871s.871.39.871.87h1.742A2.61 2.61 0 0 0 27.87 8.87V6.968h-1.742V8.87a2.61 2.61 0 0 0-1.742 2.453A2.616 2.616 0 0 0 27 13.935c.48 0 .871.392.871.871 0 .48-.391.871-.871.871z" fill="#fff"/><path d="M54 26.129V0H0v26.129h13.935v4.858c0 1.553.456 3.057 1.318 4.349l2.166 3.25v1.479h-1.742v8.71H30.51C32.896 51.94 36.675 54 40.935 54 48.14 54 54 48.14 54 40.935c0-7.203-5.86-13.064-13.065-13.064-.294 0-.581.025-.87.044V26.13H54zM17.42 47.032v-5.226h10.495a12.96 12.96 0 0 0 1.475 5.226H17.42zm34.838-6.096c0 6.243-5.08 11.322-11.323 11.322s-11.322-5.08-11.322-11.323 5.08-11.322 11.322-11.322c6.244 0 11.323 5.08 11.323 11.322zM38.323 28.133c-5.68 1.157-10.015 6.013-10.408 11.93h-8.754V38.06l-2.46-3.69a6.083 6.083 0 0 1-1.024-3.382v-6.6H1.742V1.742h50.516v22.645H20.903V20.46A9.496 9.496 0 0 0 27 22.645h20.032v-.87a2.616 2.616 0 0 1 2.613-2.614h.871V6.968h-.87a2.616 2.616 0 0 1-2.614-2.613v-.871H6.968v.87a2.616 2.616 0 0 1-2.613 2.614h-.871V19.16h.87a2.616 2.616 0 0 1 2.614 2.613v.871h8.71v-6.097c0-.96.78-1.741 1.741-1.741.961 0 1.742.78 1.742 1.741v13.065h.871a4.36 4.36 0 0 1 4.355 4.355h1.742a6.106 6.106 0 0 0-5.226-6.035v-1.804h17.42v2.005zM19.19 13.565c-.01-.167-.03-.333-.03-.5 0-4.322 3.517-7.84 7.839-7.84 4.322 0 7.839 3.518 7.839 7.84 0 4.321-3.517 7.838-7.839 7.838a7.769 7.769 0 0 1-6.097-2.928v-1.427a3.473 3.473 0 0 0-1.712-2.982zm-1.772-.5a3.487 3.487 0 0 0-3.484 3.483v4.355H8.622a4.366 4.366 0 0 0-3.396-3.396V8.622a4.366 4.366 0 0 0 3.396-3.396h12.886C19.04 6.96 17.42 9.824 17.42 13.065zm15.073-7.84h12.886a4.366 4.366 0 0 0 3.396 3.397v8.884a4.366 4.366 0 0 0-3.396 3.396H32.492c2.468-1.734 4.089-4.597 4.089-7.838 0-3.24-1.621-6.103-4.09-7.838z" fill="#fff"/><path d="M37.091 40.935l-5.226 5.226 3.845 3.845 5.225-5.226 5.226 5.226 3.845-3.845-5.226-5.226 5.226-5.225-3.845-3.845-5.226 5.226-5.225-5.226-3.845 3.845 5.226 5.225zm3.844-1.38l5.226-5.227 1.382 1.382-5.226 5.225 5.226 5.226-1.382 1.382-5.226-5.226-5.225 5.226-1.382-1.382 5.226-5.226-5.226-5.225 1.382-1.382 5.225 5.226zM3.484 3.484h1.742v1.742H3.484V3.484zM3.484 20.903h1.742v1.742H3.484v-1.742zM48.774 3.484h1.742v1.742h-1.742V3.484zM48.774 20.903h1.742v1.742h-1.742v-1.742z" fill="#fff"/></svg>