<svg width="32" height="32" viewBox="0 0 32 32" fill="none" xmlns="http://www.w3.org/2000/svg"><g clip-path="url(#a)"><path d="M31.044 3.568c-.38-.465-.95-.721-1.604-.721-.356 0-.733.075-1.12.223L1.957 13.133C.558 13.667.37 14.468.382 14.9c.012.43.245 1.219 1.673 1.673l.025.008 5.469 1.565 2.957 8.456c.403 1.153 1.308 1.87 2.362 1.87.665 0 1.319-.28 1.89-.806l3.383-3.114 4.906 3.95.002.001.046.038.013.01c.546.423 1.14.646 1.722.646 1.137 0 2.041-.84 2.305-2.142l4.32-21.328c.173-.857.027-1.623-.41-2.158zM9.378 17.848l10.55-5.39-6.57 6.98a.912.912 0 0 0-.22.406l-1.267 5.131-2.493-7.128zm4.144 8.475c-.043.04-.087.076-.131.109l1.175-4.76 2.138 1.721-3.182 2.93zm16.144-20.96l-4.32 21.33c-.041.203-.174.678-.516.678-.168 0-.38-.092-.597-.259l-5.56-4.476a.01.01 0 0 0-.002-.002l-3.308-2.663 9.5-10.095a.912.912 0 0 0-1.08-1.437L8.16 16.42l-5.543-1.586 26.355-10.06c.223-.085.378-.103.469-.103.056 0 .155.006.192.052.048.059.11.26.034.64z" fill="#002A50"/></g><defs><clipPath id="a"><path fill="#fff" transform="translate(.381 .475)" d="M0 0h31.144v31.144H0z"/></clipPath></defs></svg>