<svg width="104" height="60" viewBox="0 0 104 60" fill="none" xmlns="http://www.w3.org/2000/svg"><path fill-rule="evenodd" clip-rule="evenodd" d="M42.374 16.322c1.792-2.953 2.402-7.756.099-15.492-20.02 4.921-14.685 15.492-12.46 18.779a70.6 70.6 0 0 1 9.389-13.622 78.204 78.204 0 0 0-5.905 12.992 7.086 7.086 0 0 1 8.858-2.648l.02-.01zm6.949 5.905c-8.012 10.826-13.277 5.679-15.315 2.815a23.768 23.768 0 0 1 8.484-1.91 26.654 26.654 0 0 0-9.182-.354c.886-2.726 4.625-10.777 16.013-.551z" fill="#85BC22"/><path fill-rule="evenodd" clip-rule="evenodd" d="M61.183 24.363H64.4v3.218h-3.218v-3.218zm-46.12 20.166l8-20.166h5.326L16.096 53.319c-1.802 4.251-4.174 6.131-8.534 6.308a18.139 18.139 0 0 1-6.633-1.18V54.38c4.153 1.23 4.724 1.369 6.17 1.31 2.018 0 3.73-1.083 5.67-5.63L.959 24.333h5.127L15.092 44.5l-.03.03zm34.88 15.098h-4.439v-9.38c-1.95.513-3.958.771-5.974.769-6.22 0-9.921-3.21-9.97-9.557v-7.707h4.419v7.874c0 3.858 1.968 5.541 5.55 5.541a23.406 23.406 0 0 0 5.975-.767V33.8h4.439v25.826zm17.657 0c-8.277 0-12.293-5.433-12.293-13.001 0-6.604 4.291-12.795 11.732-12.795 9.271 0 11.033 6.771 11.033 14.133h-18.7a8.022 8.022 0 0 0 8.346 8.061 8.77 8.77 0 0 0 7.175-3.208l2.805 2.027c-2.237 3.189-5.603 4.783-10.098 4.783zm-.561-22.342c-4.32 0-6.988 3.396-7.48 7.166h14.419c0-3.858-2.608-7.166-6.89-7.166h-.05zm36.032.09h-8.67v22.252h-4.42V37.374h-8.494v-3.573h21.604v3.573h-.02zM68.978 24.391h3.218v3.219h-3.218v-3.219z" fill="#fff"/></svg>