<svg width="32" height="32" viewBox="0 0 32 32" fill="none" xmlns="http://www.w3.org/2000/svg"><g clip-path="url(#a)" fill="#002A50"><path d="M27 21.849H5a.5.5 0 0 1-.473-.338l-3.289-9.592a.5.5 0 0 1 .552-.656c.181.01.35.12.428.297.406.923 1.853 3.904 3.54 3.904.02 0 .042 0 .063-.002 1.018-.045 2.61-1.22 4.413-6.554a.5.5 0 0 1 .947 0c.616 1.819 2.68 6.527 4.822 6.527h.018c1.016-.013 2.578-1.153 4.25-6.516a.5.5 0 0 1 .478-.351h.005a.5.5 0 0 1 .475.36c.511 1.761 2.325 6.373 4.549 6.565 1.3.107 2.74-1.363 4.163-4.268a.5.5 0 0 1 .922.382l-3.39 9.904a.5.5 0 0 1-.473.338zm-21.643-1h21.285l1.96-5.724c-.947 1.002-1.909 1.449-2.911 1.365-2.463-.214-4.154-3.764-4.94-5.85-1.388 3.874-2.938 5.773-4.719 5.794h-.029c-2.489 0-4.41-3.816-5.281-5.92-1.486 3.919-3.08 5.868-4.856 5.948-.911.035-1.704-.42-2.387-1.092l1.878 5.479z"/><path d="M27 25.849H5a.5.5 0 0 1-.5-.5v-4a.5.5 0 1 1 1 0v3.5h21v-3.5a.5.5 0 1 1 1 0v4a.5.5 0 0 1-.5.5zM10.914 9.568c-.943 0-1.71-.768-1.71-1.712 0-.943.767-1.71 1.71-1.71.944 0 1.711.767 1.711 1.71 0 .944-.768 1.712-1.711 1.712zm0-2.422a.712.712 0 1 0 .002 1.423.712.712 0 0 0-.002-1.423zM20.601 9.568c-.943 0-1.71-.768-1.71-1.712 0-.943.767-1.71 1.71-1.71.944 0 1.712.767 1.712 1.71 0 .944-.768 1.712-1.712 1.712zm0-2.422a.712.712 0 1 0 .002 1.423.712.712 0 0 0-.002-1.423zM30.29 11.99a1.713 1.713 0 0 1-1.712-1.712c0-.943.768-1.71 1.711-1.71.943 0 1.71.767 1.71 1.71 0 .944-.767 1.711-1.71 1.711zm0-2.422a.711.711 0 1 0 0 1.423.711.711 0 0 0 0-1.423zM1.71 11.99c-.942 0-1.71-.768-1.71-1.712 0-.943.768-1.71 1.71-1.71.944 0 1.712.767 1.712 1.71 0 .944-.768 1.711-1.711 1.711zm0-2.422a.712.712 0 1 0 .002 1.423.712.712 0 0 0-.001-1.423z"/></g><defs><clipPath id="a"><path fill="#fff" d="M0 0h32v32H0z"/></clipPath></defs></svg>