<svg width="32" height="32" viewBox="0 0 32 32" fill="none" xmlns="http://www.w3.org/2000/svg"><g clip-path="url(#a)"><path d="M15.832 25.78c4.506 0 2.9-2.853 3.247-3.673-.005-.613-.01-1.202.01-1.56.286.08.96.422 2.35 1.774 2.148 2.167 2.697 3.458 4.432 3.458h3.194c1.012 0 1.539-.419 1.802-.77.254-.34.503-.938.231-1.867-.712-2.237-4.868-6.1-5.126-6.508.04-.075.101-.175.134-.227h-.003c.82-1.083 3.95-5.773 4.411-7.65a.026.026 0 0 0 .003-.01c.249-.856.02-1.412-.216-1.726-.355-.47-.921-.707-1.685-.707h-3.194c-1.07 0-1.88.539-2.29 1.521-.687 1.745-2.615 5.335-4.06 6.605-.045-1.8-.015-3.174.008-4.195.047-1.992.198-3.93-1.87-3.93h-5.019c-1.295 0-2.534 1.414-1.193 3.093 1.174 1.471.422 2.292.675 6.374-.986-1.058-2.74-3.914-3.981-7.564-.348-.988-.875-1.903-2.358-1.903H2.141c-1.296 0-2.069.706-2.069 1.889 0 2.655 5.877 17.575 15.76 17.575zM5.334 8.261c.282 0 .31 0 .52.593 1.27 3.741 4.12 9.277 6.2 9.277 1.564 0 1.564-1.603 1.564-2.206v-4.804c-.087-1.59-.665-2.381-1.046-2.861l4.553.005c.002.022-.026 5.314.013 6.596 0 1.82 1.445 2.864 3.702.58 2.381-2.688 4.028-6.705 4.094-6.869.097-.233.182-.312.488-.312h3.206c0 .004 0 .007-.002.011-.292 1.363-3.174 5.705-4.138 7.053a1.12 1.12 0 0 0-.044.065c-.425.693-.77 1.459.058 2.536h.001c.075.09.271.303.557.6.888.915 3.932 4.048 4.202 5.294-.18.028-.374.008-3.391.014-.642 0-1.145-.96-3.061-2.894-1.723-1.676-2.842-2.362-3.86-2.362-1.978 0-1.834 1.606-1.816 3.547.006 2.105-.007 1.439.008 1.571-.116.046-.447.137-1.31.137-8.233 0-13.595-13.07-13.802-15.567.072-.007 1.054-.003 3.304-.004z" fill="#002A50"/></g><defs><clipPath id="a"><path fill="#fff" transform="translate(.072 .475)" d="M0 0h31.144v31.144H0z"/></clipPath></defs></svg>